<svg xmlns="http://www.w3.org/2000/svg" width="1200" height="675" viewBox="0 0 1200 675" fill="none">
  <defs>
    <linearGradient id="g" x1="0" y1="0" x2="1" y2="1">
      <stop offset="0" stop-color="#ff9b6b"/>
      <stop offset="1" stop-color="#b8431a"/>
    </linearGradient>
    <radialGradient id="glow" cx="0.72" cy="0.18" r="0.9">
      <stop offset="0" stop-color="#ff9b6b" stop-opacity="0.45"/>
      <stop offset="0.55" stop-color="#b8431a" stop-opacity="0.12"/>
      <stop offset="1" stop-color="#0a0a0f" stop-opacity="0"/>
    </radialGradient>
  </defs>
  <rect width="1200" height="675" fill="#0a0a0f"/>
  <rect width="1200" height="675" fill="url(#glow)"/>
  <g stroke="#f5f5f7" stroke-opacity="0.05">
    <path d="M0 95 H1200"/><path d="M0 190 H1200"/><path d="M0 285 H1200"/><path d="M0 380 H1200"/><path d="M0 475 H1200"/><path d="M0 570 H1200"/><path d="M0 665 H1200"/>
    <path d="M120 0 V675"/><path d="M240 0 V675"/><path d="M360 0 V675"/><path d="M480 0 V675"/><path d="M600 0 V675"/><path d="M720 0 V675"/><path d="M840 0 V675"/><path d="M960 0 V675"/><path d="M1080 0 V675"/>
  </g>
  <rect x="120" y="170" width="150" height="80" rx="8" fill="url(#g)" opacity="0.12"/><rect x="285" y="170" width="150" height="80" rx="8" fill="url(#g)" opacity="0.26"/><rect x="450" y="170" width="150" height="80" rx="8" fill="url(#g)" opacity="0.4"/><rect x="615" y="170" width="150" height="80" rx="8" fill="url(#g)" opacity="0.19"/><rect x="780" y="170" width="150" height="80" rx="8" fill="url(#g)" opacity="0.33"/><rect x="945" y="170" width="150" height="80" rx="8" fill="url(#g)" opacity="0.12"/><rect x="120" y="265" width="150" height="80" rx="8" fill="url(#g)" opacity="0.26"/><rect x="285" y="265" width="150" height="80" rx="8" fill="url(#g)" opacity="0.4"/><rect x="450" y="265" width="150" height="80" rx="8" fill="url(#g)" opacity="0.19"/><rect x="615" y="265" width="150" height="80" rx="8" fill="url(#g)" opacity="0.33"/><rect x="780" y="265" width="150" height="80" rx="8" fill="url(#g)" opacity="0.12"/><rect x="945" y="265" width="150" height="80" rx="8" fill="url(#g)" opacity="0.26"/><rect x="120" y="360" width="150" height="80" rx="8" fill="url(#g)" opacity="0.4"/><rect x="285" y="360" width="150" height="80" rx="8" fill="url(#g)" opacity="0.19"/><rect x="450" y="360" width="150" height="80" rx="8" fill="url(#g)" opacity="0.33"/><rect x="615" y="360" width="150" height="80" rx="8" fill="url(#g)" opacity="0.12"/><rect x="780" y="360" width="150" height="80" rx="8" fill="url(#g)" opacity="0.26"/><rect x="945" y="360" width="150" height="80" rx="8" fill="url(#g)" opacity="0.4"/><rect x="120" y="455" width="150" height="80" rx="8" fill="url(#g)" opacity="0.19"/><rect x="285" y="455" width="150" height="80" rx="8" fill="url(#g)" opacity="0.33"/><rect x="450" y="455" width="150" height="80" rx="8" fill="url(#g)" opacity="0.12"/><rect x="615" y="455" width="150" height="80" rx="8" fill="url(#g)" opacity="0.26"/><rect x="780" y="455" width="150" height="80" rx="8" fill="url(#g)" opacity="0.4"/><rect x="945" y="455" width="150" height="80" rx="8" fill="url(#g)" opacity="0.19"/>
  <text x="120" y="120" fill="#a5a5af" font-family="ui-monospace, SFMono-Regular, monospace" font-size="20" letter-spacing="5" style="text-transform:uppercase">ERP System · 2024</text>
  <text x="118" y="585" fill="#f5f5f7" font-family="Georgia, 'Times New Roman', serif" font-size="120" font-style="italic">Atlas</text>
  <text x="1080" y="640" text-anchor="end" fill="#5a5a68" font-family="ui-monospace, monospace" font-size="16" letter-spacing="3">G.H. · atlas-erp</text>
</svg>
