<svg xmlns="http://www.w3.org/2000/svg" width="1200" height="675" viewBox="0 0 1200 675" fill="none">
  <defs>
    <linearGradient id="g" x1="0" y1="0" x2="1" y2="1">
      <stop offset="0" stop-color="#5cc8ff"/>
      <stop offset="1" stop-color="#1456a8"/>
    </linearGradient>
    <radialGradient id="glow" cx="0.72" cy="0.18" r="0.9">
      <stop offset="0" stop-color="#5cc8ff" stop-opacity="0.45"/>
      <stop offset="0.55" stop-color="#1456a8" stop-opacity="0.12"/>
      <stop offset="1" stop-color="#0a0a0f" stop-opacity="0"/>
    </radialGradient>
  </defs>
  <rect width="1200" height="675" fill="#0a0a0f"/>
  <rect width="1200" height="675" fill="url(#glow)"/>
  <g stroke="#f5f5f7" stroke-opacity="0.05">
    <path d="M0 95 H1200"/><path d="M0 190 H1200"/><path d="M0 285 H1200"/><path d="M0 380 H1200"/><path d="M0 475 H1200"/><path d="M0 570 H1200"/><path d="M0 665 H1200"/>
    <path d="M120 0 V675"/><path d="M240 0 V675"/><path d="M360 0 V675"/><path d="M480 0 V675"/><path d="M600 0 V675"/><path d="M720 0 V675"/><path d="M840 0 V675"/><path d="M960 0 V675"/><path d="M1080 0 V675"/>
  </g>
  <rect x="120" y="200" width="190" height="240" rx="14" fill="none" stroke="#5cc8ff" stroke-opacity="0.5"/><rect x="136" y="222" width="120" height="14" rx="7" fill="#5cc8ff" opacity="0.55"/><rect x="136" y="252" width="158" height="10" rx="5" fill="#ffffff" opacity="0.12"/><path d="M310 320 H360" stroke="#5cc8ff" stroke-opacity="0.6" stroke-width="2"/><rect x="360" y="200" width="190" height="240" rx="14" fill="none" stroke="#5cc8ff" stroke-opacity="0.5"/><rect x="376" y="222" width="120" height="14" rx="7" fill="#5cc8ff" opacity="0.55"/><rect x="376" y="252" width="158" height="10" rx="5" fill="#ffffff" opacity="0.12"/><path d="M550 320 H600" stroke="#5cc8ff" stroke-opacity="0.6" stroke-width="2"/><rect x="600" y="200" width="190" height="240" rx="14" fill="none" stroke="#5cc8ff" stroke-opacity="0.5"/><rect x="616" y="222" width="120" height="14" rx="7" fill="#5cc8ff" opacity="0.55"/><rect x="616" y="252" width="158" height="10" rx="5" fill="#ffffff" opacity="0.12"/><path d="M790 320 H840" stroke="#5cc8ff" stroke-opacity="0.6" stroke-width="2"/><rect x="840" y="200" width="190" height="240" rx="14" fill="none" stroke="#5cc8ff" stroke-opacity="0.5"/><rect x="856" y="222" width="120" height="14" rx="7" fill="#5cc8ff" opacity="0.55"/><rect x="856" y="252" width="158" height="10" rx="5" fill="#ffffff" opacity="0.12"/>
  <text x="120" y="120" fill="#a5a5af" font-family="ui-monospace, SFMono-Regular, monospace" font-size="20" letter-spacing="5" style="text-transform:uppercase">Product</text>
  <text x="118" y="585" fill="#f5f5f7" font-family="Georgia, 'Times New Roman', serif" font-size="120" font-style="italic">Building a CRM clients use</text>
  <text x="1080" y="640" text-anchor="end" fill="#5a5a68" font-family="ui-monospace, monospace" font-size="16" letter-spacing="3">G.H. · building-crm-clients-actually-use</text>
</svg>
