<svg xmlns="http://www.w3.org/2000/svg" width="1200" height="675" viewBox="0 0 1200 675" fill="none">
  <defs>
    <linearGradient id="g" x1="0" y1="0" x2="1" y2="1">
      <stop offset="0" stop-color="#a78cff"/>
      <stop offset="1" stop-color="#5a2ad6"/>
    </linearGradient>
    <radialGradient id="glow" cx="0.72" cy="0.18" r="0.9">
      <stop offset="0" stop-color="#a78cff" stop-opacity="0.45"/>
      <stop offset="0.55" stop-color="#5a2ad6" stop-opacity="0.12"/>
      <stop offset="1" stop-color="#0a0a0f" stop-opacity="0"/>
    </radialGradient>
  </defs>
  <rect width="1200" height="675" fill="#0a0a0f"/>
  <rect width="1200" height="675" fill="url(#glow)"/>
  <g stroke="#f5f5f7" stroke-opacity="0.05">
    <path d="M0 95 H1200"/><path d="M0 190 H1200"/><path d="M0 285 H1200"/><path d="M0 380 H1200"/><path d="M0 475 H1200"/><path d="M0 570 H1200"/><path d="M0 665 H1200"/>
    <path d="M120 0 V675"/><path d="M240 0 V675"/><path d="M360 0 V675"/><path d="M480 0 V675"/><path d="M600 0 V675"/><path d="M720 0 V675"/><path d="M840 0 V675"/><path d="M960 0 V675"/><path d="M1080 0 V675"/>
  </g>
  <rect x="120" y="460" width="78" height="60" rx="6" fill="url(#g)" opacity="0.35"/><rect x="250" y="370" width="78" height="150" rx="6" fill="url(#g)" opacity="0.43"/><rect x="380" y="430" width="78" height="90" rx="6" fill="url(#g)" opacity="0.51"/><rect x="510" y="320" width="78" height="200" rx="6" fill="url(#g)" opacity="0.59"/><rect x="640" y="390" width="78" height="130" rx="6" fill="url(#g)" opacity="0.6699999999999999"/><rect x="770" y="280" width="78" height="240" rx="6" fill="url(#g)" opacity="0.75"/><rect x="900" y="350" width="78" height="170" rx="6" fill="url(#g)" opacity="0.83"/>
  <text x="120" y="120" fill="#a5a5af" font-family="ui-monospace, SFMono-Regular, monospace" font-size="20" letter-spacing="5" style="text-transform:uppercase">Engineering</text>
  <text x="118" y="585" fill="#f5f5f7" font-family="Georgia, 'Times New Roman', serif" font-size="120" font-style="italic">Predicate pushdown</text>
  <text x="1080" y="640" text-anchor="end" fill="#5a5a68" font-family="ui-monospace, monospace" font-size="16" letter-spacing="3">G.H. · predicate-pushdown-explained</text>
</svg>
